<svg xmlns="http://www.w3.org/2000/svg" viewBox="0 0 245 80" role="img" aria-label="objectio">
  <title>objectio</title>
  <defs>
    <linearGradient id="arc" x1="0" y1="0" x2="1" y2="0">
      <stop offset="0" stop-color="#00B093"/>
      <stop offset="1" stop-color="#1F6AFF"/>
    </linearGradient>
  </defs>
  <g transform="translate(10,58) scale(0.030000,-0.030000)" fill="#0B0F14">
    <path transform="translate(0,0)" d="M583 1053Q701 1053 798.0 1016.0Q895 979 964.5 910.0Q1034 841 1072.5 742.5Q1111 644 1111 521Q1111 397 1072.5 297.5Q1034 198 964.5 128.5Q895 59 798.0 21.5Q701 -16 583 -16Q464 -16 366.5 21.5Q269 59 198.5 128.5Q128 198 89.5 297.5Q51 397 51 521Q51 644 89.5 742.5Q128 841 198.5 910.0Q269 979 366.5 1016.0Q464 1053 583 1053ZM583 214Q690 214 740.5 289.5Q791 365 791 519Q791 673 740.5 748.0Q690 823 583 823Q473 823 422.0 748.0Q371 673 371 519Q371 365 422.0 289.5Q473 214 583 214Z"/>
  <path transform="translate(1195,0)" d="M105 0V1497H415V926Q475 984 546.0 1018.5Q617 1053 706 1053Q794 1053 866.0 1017.0Q938 981 989.0 914.5Q1040 848 1067.5 754.0Q1095 660 1095 544Q1095 418 1063.0 315.0Q1031 212 972.5 138.5Q914 65 833.0 24.5Q752 -16 654 -16Q607 -16 570.0 -7.0Q533 2 502.0 18.5Q471 35 445.5 58.0Q420 81 396 108L385 56Q377 24 359.0 12.0Q341 0 311 0ZM597 820Q540 820 498.0 795.0Q456 770 415 722V282Q450 243 491.0 227.5Q532 212 574 212Q618 212 655.0 228.5Q692 245 718.5 282.5Q745 320 760.0 381.5Q775 443 775 533Q775 611 763.5 665.5Q752 720 729.5 754.5Q707 789 673.5 804.5Q640 820 597 820Z"/>
  <path transform="translate(2377,0)" d="M422 1037V-2Q422 -75 403.5 -139.5Q385 -204 342.5 -252.5Q300 -301 230.5 -329.0Q161 -357 58 -357Q20 -357 -12.5 -352.5Q-45 -348 -80 -339L-70 -176Q-68 -155 -56.0 -145.0Q-44 -135 -8 -135Q28 -135 51.0 -129.0Q74 -123 87.5 -108.0Q101 -93 106.5 -67.5Q112 -42 112 -2V1037ZM454 1321Q454 1284 439.0 1251.5Q424 1219 398.0 1194.5Q372 1170 337.5 1155.5Q303 1141 264 1141Q226 1141 193.0 1155.5Q160 1170 134.5 1194.5Q109 1219 94.5 1251.5Q80 1284 80 1321Q80 1359 94.5 1392.0Q109 1425 134.5 1450.0Q160 1475 193.0 1489.0Q226 1503 264 1503Q303 1503 337.5 1489.0Q372 1475 398.0 1450.0Q424 1425 439.0 1392.0Q454 1359 454 1321Z"/>
  <path transform="translate(2944,0)" d="M562 1053Q665 1053 750.5 1021.0Q836 989 897.5 928.0Q959 867 993.5 778.5Q1028 690 1028 578Q1028 543 1025.0 521.0Q1022 499 1014.0 486.0Q1006 473 992.5 468.0Q979 463 958 463H360Q375 333 439.0 274.5Q503 216 604 216Q658 216 697.0 229.0Q736 242 766.5 258.0Q797 274 822.5 287.0Q848 300 876 300Q913 300 932 273L1022 162Q974 107 918.5 72.5Q863 38 804.5 18.5Q746 -1 687.5 -8.5Q629 -16 576 -16Q467 -16 371.5 19.5Q276 55 204.5 125.0Q133 195 91.5 299.0Q50 403 50 541Q50 645 85.5 738.0Q121 831 187.5 901.0Q254 971 348.5 1012.0Q443 1053 562 1053ZM568 839Q479 839 429.0 788.5Q379 738 363 643H750Q750 680 740.5 715.0Q731 750 709.5 777.5Q688 805 653.0 822.0Q618 839 568 839Z"/>
  <path transform="translate(4055,0)" d="M867 791Q853 774 840.0 764.0Q827 754 803 754Q780 754 761.5 765.0Q743 776 720.0 789.5Q697 803 666.0 814.0Q635 825 589 825Q532 825 490.5 804.0Q449 783 422.0 744.0Q395 705 382.0 648.5Q369 592 369 521Q369 372 426.5 292.0Q484 212 585 212Q639 212 670.5 225.5Q702 239 724.0 255.5Q746 272 764.5 286.0Q783 300 811 300Q848 300 867 273L957 162Q909 107 856.0 72.5Q803 38 747.5 18.5Q692 -1 636.0 -8.5Q580 -16 527 -16Q432 -16 345.5 20.0Q259 56 193.5 124.5Q128 193 89.5 293.0Q51 393 51 521Q51 633 84.5 730.5Q118 828 183.5 899.5Q249 971 345.5 1012.0Q442 1053 569 1053Q691 1053 783.0 1014.0Q875 975 949 900Z"/>
  <path transform="translate(5061,0)" d="M476 -16Q402 -16 345.5 5.5Q289 27 250.5 66.5Q212 106 192.0 162.0Q172 218 172 287V823H84Q60 823 43.0 838.5Q26 854 26 884V1005L191 1037L252 1290Q264 1338 320 1338H482V1035H739V823H482V308Q482 272 499.5 248.5Q517 225 550 225Q567 225 578.5 228.5Q590 232 598.5 236.5Q607 241 614.5 244.5Q622 248 632 248Q646 248 654.5 241.5Q663 235 672 221L766 74Q706 29 631.0 6.5Q556 -16 476 -16Z"/>
  <path transform="translate(5862,0)" d="M422 1037V0H112V1037ZM454 1321Q454 1284 439.0 1251.5Q424 1219 398.0 1194.5Q372 1170 337.5 1155.5Q303 1141 264 1141Q226 1141 193.0 1155.5Q160 1170 134.5 1194.5Q109 1219 94.5 1251.5Q80 1284 80 1321Q80 1359 94.5 1392.0Q109 1425 134.5 1450.0Q160 1475 193.0 1489.0Q226 1503 264 1503Q303 1503 337.5 1489.0Q372 1475 398.0 1450.0Q424 1425 439.0 1392.0Q454 1359 454 1321Z"/>
  </g>
  <g transform="translate(218.9,41.5)">
    <circle r="12.5" fill="none" stroke="#0B0F14" stroke-width="8"/>
    <circle r="5.5"  fill="none" stroke="#CFD5E0" stroke-width="2" />
    <path d="M 0 -5.5 A 5.5 5.5 0 0 1 5.5 0"
          fill="none" stroke="url(#arc)" stroke-width="2" stroke-linecap="round"/>
    <rect x="-1.5" y="-1.5" width="3" height="3" fill="#00B093"/>
  </g>
</svg>
